<?xml version="1.0" encoding="UTF-8" standalone="no"?>
<svg
   xmlns:dc="http://purl.org/dc/elements/1.1/"
   xmlns:cc="http://creativecommons.org/ns#"
   xmlns:rdf="http://www.w3.org/1999/02/22-rdf-syntax-ns#"
   xmlns:svg="http://www.w3.org/2000/svg"
   xmlns="http://www.w3.org/2000/svg"
   xmlns:sodipodi="http://sodipodi.sourceforge.net/DTD/sodipodi-0.dtd"
   xmlns:inkscape="http://www.inkscape.org/namespaces/inkscape"
   viewBox="0 0 72 72"
   version="1.1"
   id="svg184"
   sodipodi:docname="player_won.svg"
   inkscape:version="0.92.5 (2060ec1f9f, 2020-04-08)">
  <metadata
     id="metadata190">
    <rdf:RDF>
      <cc:Work
         rdf:about="">
        <dc:format>image/svg+xml</dc:format>
        <dc:type
           rdf:resource="http://purl.org/dc/dcmitype/StillImage" />
        <dc:title></dc:title>
      </cc:Work>
    </rdf:RDF>
  </metadata>
  <defs
     id="defs188" />
  <sodipodi:namedview
     pagecolor="#ffffff"
     bordercolor="#666666"
     borderopacity="1"
     objecttolerance="10"
     gridtolerance="10"
     guidetolerance="10"
     inkscape:pageopacity="0"
     inkscape:pageshadow="2"
     inkscape:window-width="1528"
     inkscape:window-height="836"
     id="namedview186"
     showgrid="false"
     inkscape:zoom="9.1388889"
     inkscape:cx="36"
     inkscape:cy="36"
     inkscape:window-x="72"
     inkscape:window-y="27"
     inkscape:window-maximized="1"
     inkscape:current-layer="svg184" />
  <g
     style="fill:none;stroke:#000000;stroke-width:2;stroke-linecap:round;stroke-linejoin:round;stroke-miterlimit:10"
     id="g182"
     transform="matrix(0.64145623,0,0,0.68122489,-3.1245479,24.293335)">
    <path
       d="m 22.7484,27.2535 c -3.1923,-3.1923 1.6882,-7.6885 4.2795,-5.0972 L 43.3371,38.4655 39.8796,35.008 c -1.1612,-2.8574 -0.8089,-7.4235 2.2659,-7.4235 5.01,5.01 8.4731,8.9333 10.6782,11.0721 6.2265,6.2265 6.2265,16.3217 0,22.5483 -6.2265,6.2266 -16.1868,6.2579 -22.4133,0.0314 L 13.1717,43.9976 c -2.8935,-2.8935 1.1791,-6.8155 3.4228,-4.5718 l 9.8594,10.043 -8.5742,-8.7339 -4.5079,-4.5918 c -3.7489,-3.7489 1.5155,-7.6739 4.0062,-5.1832 -4.9957,-4.9957 0.5147,-8.5621 3.3047,-5.7722 l 13.3909,13.3909"
       id="path120"
       inkscape:connector-curvature="0" />
    <path
       d="m 20.3603,18.3415 0.281,1.8296"
       id="path122"
       inkscape:connector-curvature="0" />
    <path
       d="M 15.4078,12.9103 14.0603,6.6237"
       id="path124"
       inkscape:connector-curvature="0" />
    <path
       d="M 12.5067,18.5051 6.5922,21.0262"
       id="path126"
       inkscape:connector-curvature="0" />
    <path
       d="M 13.6526,15.5204 9.2139,13.2187"
       id="path128"
       inkscape:connector-curvature="0" />
    <path
       d="M 54.532,14.4973 54.2702,8.0732"
       id="path130"
       inkscape:connector-curvature="0" />
    <path
       d="m 58.7358,19.1926 6.3562,0.9676"
       id="path132"
       inkscape:connector-curvature="0" />
    <path
       d="m 56.8822,16.5876 3.7251,-3.3352"
       id="path134"
       inkscape:connector-curvature="0" />
    <path
       d="M 29.9173,43.7429 16.8352,30.4172"
       id="path136"
       inkscape:connector-curvature="0" />
    <path
       d="M 34.0735,38.5786 20.6826,25.1877"
       id="path138"
       inkscape:connector-curvature="0" />
    <path
       d="m 13.1717,43.9976 c -2.8935,-2.8935 1.1791,-6.8155 3.4228,-4.5718 l 9.8594,10.043"
       id="path140"
       inkscape:connector-curvature="0" />
    <path
       d="m 13.3717,36.1431 c -3.7489,-3.7489 1.5155,-7.6739 4.0062,-5.1832"
       id="path142"
       inkscape:connector-curvature="0" />
    <path
       d="m 20.6826,25.1877 c -2.79,-2.79 -8.3004,0.7764 -3.3047,5.7722"
       id="path144"
       inkscape:connector-curvature="0" />
    <path
       d="m 52.8236,38.6567 c -2.2051,-2.1389 -5.6682,-6.0622 -10.6782,-11.0721 -3.0748,0 -3.4271,4.5661 -2.2659,7.4235 L 43.337,38.4656 27.0279,22.1564 c -2.5914,-2.5914 -7.4718,1.9049 -4.2795,5.0972"
       id="path146"
       inkscape:connector-curvature="0" />
    <path
       d="m 13.3717,36.1431 4.5079,4.5919"
       id="path148"
       inkscape:connector-curvature="0" />
    <path
       d="m 52.8236,38.6567 c 6.2265,6.2265 6.2265,16.3217 0,22.5483 -6.2265,6.2266 -16.1868,6.2579 -22.4133,0.0314"
       id="path150"
       inkscape:connector-curvature="0" />
    <path
       d="M 13.1717,43.9976 30.4103,61.2363"
       id="path152"
       inkscape:connector-curvature="0" />
    <path
       d="M 33.3873,23.7062 31.3476,9.5592"
       id="path154"
       inkscape:connector-curvature="0" />
    <path
       d="M 40.0786,24.6186 37.5431,7.6188"
       id="path156"
       inkscape:connector-curvature="0" />
    <path
       d="m 20.3603,18.3415 c -0.6213,-4.0446 4.9823,-4.7977 5.4641,-1.6614 l 0.2215,1.702"
       id="path158"
       inkscape:connector-curvature="0" />
    <path
       d="m 25.1679,12.127 c -0.805,-5.2403 5.7614,-5.2907 6.2962,-1.8092"
       id="path160"
       inkscape:connector-curvature="0" />
    <path
       d="M 37.5431,7.6188 C 36.944,3.7189 30.3914,3.3347 31.4641,10.3179"
       id="path162"
       inkscape:connector-curvature="0" />
    <path
       d="M 55.3349,36.5565 C 54.8222,33.5276 54.5058,29.2506 53.4301,22.2476 50.951,20.4287 47.9658,23.9018 47.2118,26.8925 L 44.4524,8.9283 C 43.896,5.306 37.3013,6.0442 37.9867,10.5064"
       id="path164"
       inkscape:connector-curvature="0" />
    <path
       d="m 25.1679,12.127 0.7763,5.4448"
       id="path166"
       inkscape:connector-curvature="0" />
    <path
       d="m 20.3603,18.3415 0.281,1.8296"
       id="path168"
       inkscape:connector-curvature="0" />
    <path
       d="M 15.4078,12.9103 14.0603,6.6237"
       id="path170"
       inkscape:connector-curvature="0" />
    <path
       d="M 12.5067,18.5051 6.5922,21.0262"
       id="path172"
       inkscape:connector-curvature="0" />
    <path
       d="M 13.6526,15.5204 9.2139,13.2187"
       id="path174"
       inkscape:connector-curvature="0" />
    <path
       d="M 54.532,14.4973 54.2702,8.0732"
       id="path176"
       inkscape:connector-curvature="0" />
    <path
       d="m 58.7358,19.1926 6.3562,0.9676"
       id="path178"
       inkscape:connector-curvature="0" />
    <path
       d="m 56.8822,16.5876 3.7251,-3.3352"
       id="path180"
       inkscape:connector-curvature="0" />
  </g>
  <g
     id="g264"
     style="fill:none;stroke:#000000;stroke-width:2;stroke-linecap:round;stroke-linejoin:round"
     transform="matrix(0.97649004,0,0,0.98809779,11.353067,-8.8067373)">
    <path
       id="path252"
       d="m 52.5373,11.832 c 0,0 0,-0.519 -3.667,17.814 -1.588,7.942 -5.5,12.572 -12.833,12.572 -7.333,0 -11.245,-4.5 -12.833,-12.443 -3.667,-18.333 -3.667,-17.943 -3.667,-17.943 z"
       inkscape:connector-curvature="0" />
    <path
       id="path254"
       d="m 23.0443,31.479 c 0,0 0.079,-0.261 -5.421,-3.928 -2.528,-1.683 -5.459,-3.9 -5.459,-6.943 0,-3.043 2.5,-5.11 5.539,-5.11 h 1.513"
       inkscape:connector-curvature="0" />
    <path
       id="path256"
       d="m 48.7113,31.766 c 0,0 0.079,-0.261 5.579,-3.928 2.528,-1.683 5.541,-3.9 5.541,-6.943 -0.0146,-2.842 -2.3303,-5.1341 -5.1723,-5.1196 -0.0963,5e-4 -0.1926,0.0037 -0.2887,0.0096 h -2.154"
       inkscape:connector-curvature="0" />
    <path
       id="path258"
       d="m 26.5503,50.332 h 18.333 v 9.167 h -18.333 z"
       inkscape:connector-curvature="0" />
    <circle
       id="circle260"
       r="5"
       cy="24.580999"
       cx="36.0373" />
    <path
       id="path262"
       d="M 36.0373,50.332 V 42.218"
       inkscape:connector-curvature="0" />
  </g>
</svg>
