<?xml version="1.0" encoding="UTF-8" standalone="no"?>
<svg
   xmlns:dc="http://purl.org/dc/elements/1.1/"
   xmlns:cc="http://creativecommons.org/ns#"
   xmlns:rdf="http://www.w3.org/1999/02/22-rdf-syntax-ns#"
   xmlns:svg="http://www.w3.org/2000/svg"
   xmlns="http://www.w3.org/2000/svg"
   xmlns:sodipodi="http://sodipodi.sourceforge.net/DTD/sodipodi-0.dtd"
   xmlns:inkscape="http://www.inkscape.org/namespaces/inkscape"
   viewBox="0 0 108 72"
   version="1.1"
   id="svg84"
   sodipodi:docname="robot_sunglasses_reload.svg"
   inkscape:version="0.92.5 (2060ec1f9f, 2020-04-08)"
   width="108"
   height="72">
  <metadata
     id="metadata90">
    <rdf:RDF>
      <cc:Work
         rdf:about="">
        <dc:format>image/svg+xml</dc:format>
        <dc:type
           rdf:resource="http://purl.org/dc/dcmitype/StillImage" />
        <dc:title></dc:title>
      </cc:Work>
    </rdf:RDF>
  </metadata>
  <defs
     id="defs88" />
  <sodipodi:namedview
     pagecolor="#ffffff"
     bordercolor="#666666"
     borderopacity="1"
     objecttolerance="10"
     gridtolerance="10"
     guidetolerance="10"
     inkscape:pageopacity="0"
     inkscape:pageshadow="2"
     inkscape:window-width="1528"
     inkscape:window-height="836"
     id="namedview86"
     showgrid="false"
     inkscape:zoom="9.1388889"
     inkscape:cx="85.30215"
     inkscape:cy="7.5498445"
     inkscape:window-x="72"
     inkscape:window-y="207"
     inkscape:window-maximized="1"
     inkscape:current-layer="svg84" />
  <path
     style="fill:none;stroke:#000000;stroke-width:2;stroke-linecap:round;stroke-linejoin:round;stroke-miterlimit:10"
     inkscape:connector-curvature="0"
     id="path72"
     stroke-miterlimit="10"
     d="m 29.94,48.441155 c 8.505,0.7027 16.67,0.4269 16.98,-4.128" />
  <path
     style="fill:none;stroke:#000000;stroke-width:2;stroke-linecap:round;stroke-linejoin:round;stroke-miterlimit:10"
     inkscape:connector-curvature="0"
     id="path74"
     stroke-miterlimit="10"
     d="m 41.93,26.77 c 0.4667,-0.25 2.52,-1.1 5.042,-0.5743 2.118,0.3921 2.421,0.8283 3.73,1.725" />
  <path
     style="fill:none;stroke:#000000;stroke-width:2;stroke-linecap:round;stroke-linejoin:round;stroke-miterlimit:10"
     inkscape:connector-curvature="0"
     id="path76"
     stroke-miterlimit="10"
     d="m 22.29,28.7 c 0.3266,-0.4271 1.792,-2.245 4.424,-2.685 2.135,-0.3566 3.794,0.4017 4.352,0.688" />
  <path
     d="m 32,33 c 0,1.6568 -1.3448,3 -3,3 -1.6553,0 -3,-1.3433 -3,-3 0,-1.6552 1.3447,-3 3,-3 1.6552,0 3,1.3448 3,3"
     id="path80"
     inkscape:connector-curvature="0" />
  <path
     d="m 50,33 c 0,1.6568 -1.3447,3 -3,3 -1.6553,0 -3,-1.3433 -3,-3 0,-1.6552 1.3447,-3 3,-3 1.6553,0 3,1.3448 3,3"
     id="path82"
     inkscape:connector-curvature="0" />
  <path
     id="path82-2"
     d="M 34,18.5109 V 16 c 0,-1.3807 1.1193,-2.5 2.5,-2.5 1.3807,0 2.5,1.1193 2.5,2.5 v 2.5"
     inkscape:connector-curvature="0"
     style="fill:none;stroke:#000000;stroke-width:2;stroke-linecap:round;stroke-linejoin:round;stroke-miterlimit:2"
     sodipodi:nodetypes="csssc" />
  <path
     id="path84"
     d="M 47.4505,58.5 H 24.5495 C 19.8473,58.5 16,54.6527 16,49.9505 V 27.0495 C 16,22.3473 19.8473,18.5 24.5495,18.5 h 22.901 C 52.1527,18.5 56,22.3473 56,27.0495 v 22.901 C 56,54.6527 52.1527,58.5 47.4505,58.5 Z"
     inkscape:connector-curvature="0"
     style="fill:none;stroke:#000000;stroke-width:2;stroke-linecap:round;stroke-linejoin:round;stroke-miterlimit:2"
     sodipodi:nodetypes="sssssssss" />
  <circle
     id="ellipse86"
     cy="31.502199"
     cx="44.834599"
     r="2.8338001"
     style="fill:none;stroke:#000000;stroke-width:2;stroke-linecap:round;stroke-linejoin:round;stroke-miterlimit:2" />
  <circle
     id="ellipse88"
     cy="31.501699"
     cx="27.3342"
     r="2.8338001"
     style="fill:none;stroke:#000000;stroke-width:2;stroke-linecap:round;stroke-linejoin:round;stroke-miterlimit:2" />
  <path
     style="fill:none;stroke:#000000;stroke-width:2;stroke-linecap:round;stroke-linejoin:round;stroke-miterlimit:2"
     inkscape:connector-curvature="0"
     d="M 13.5,43.5 C 12.1193,43.5 11,42.3807 11,41 v -8 c 0,-1.3807 1.1193,-2.5 2.5,-2.5 1.3807,0 2.5,1.1193 2.5,2.5 v 8 c 0,1.3807 -1.1193,2.5 -2.5,2.5 z"
     id="path92"
     sodipodi:nodetypes="sssssss" />
  <path
     style="fill:none;stroke:#000000;stroke-width:2;stroke-linecap:round;stroke-linejoin:round;stroke-miterlimit:2"
     inkscape:connector-curvature="0"
     d="m 58.5,43.5 c 1.3807,0 2.5,-1.1193 2.5,-2.5 v -8 c 0,-1.3807 -1.1193,-2.5 -2.5,-2.5 -1.3807,0 -2.5,1.1193 -2.5,2.5 v 8 c 0,1.3807 1.1193,2.5 2.5,2.5 z"
     id="path94"
     sodipodi:nodetypes="sssssss" />
  <path
     id="path173"
     d="m 60.848845,28.088662 c 0,0 -1.785611,0.03313 -1.785611,1.303021 0,3.132405 0.03737,9.849958 -9.214582,9.849958 -7.408209,0 -10.94621,-3.390064 -11.540029,-7.13717 -0.245003,-1.557 -0.855432,-3.257554 -2.632738,-3.257554 -1.777306,0 -2.387735,1.696873 -2.632738,3.257554 -0.597972,3.747106 -4.135973,7.13717 -11.544181,7.13717 -9.256109,0 -9.218735,-6.721234 -9.218735,-9.849958 0,-1.269893 -1.785611,-1.303021 -1.785611,-1.303021 v -3.102957 c 0,0 3.430034,-0.467468 8.666441,-0.467468 5.236408,0 7.321005,0 11.490198,0.368085 2.45833,0.220851 5.020473,0.242936 5.020473,0.242936 0,0 2.562144,-0.02209 5.020474,-0.242936 4.165041,-0.368085 6.25379,-0.368085 11.490198,-0.368085 5.236407,0 8.666441,0.467468 8.666441,0.467468 z"
     inkscape:connector-curvature="0"
     style="stroke-width:0.39096087"
     sodipodi:nodetypes="csscscssccscccscc" />
  <path
     id="path175"
     d="m 52.182404,25.622492 c 3.400965,0 6.042008,0.202447 7.420666,0.338638 v 1.233085 c -1.000773,0.338639 -1.785611,1.085851 -1.785611,2.197468 v 0.04049 c 0,1.501787 0,3.769191 -1.021535,5.594893 -1.171029,2.094405 -3.442492,3.110319 -6.947272,3.110319 -5.842685,0 -9.696282,-2.311574 -10.306712,-6.18751 -0.552294,-3.478404 -2.408498,-4.207213 -3.866055,-4.207213 -1.461709,0 -3.313761,0.728809 -3.866055,4.207213 -0.618735,3.875936 -4.472332,6.18751 -10.310864,6.18751 -3.504781,0 -5.776244,-1.019595 -6.947272,-3.110319 -1.021536,-1.829383 -1.021536,-4.096787 -1.021536,-5.594893 v -0.04049 c 0,-1.115297 -0.788991,-1.858829 -1.785611,-2.197468 V 25.96113 c 1.374506,-0.136191 4.015548,-0.338638 7.416514,-0.338638 5.282086,0 7.258716,0 11.365621,0.364404 2.487397,0.220851 5.024626,0.246617 5.132593,0.246617 h 0.01246 0.01246 c 0.107967,0 2.645196,-0.02577 5.132593,-0.246617 4.102752,-0.364404 6.079382,-0.364404 11.365621,-0.364404 m 0,-1.104255 c -5.236408,0 -7.321005,0 -11.486046,0.368085 -2.462482,0.220851 -5.024626,0.242936 -5.024626,0.242936 0,0 -2.562143,-0.02209 -5.020473,-0.242936 -4.165041,-0.368085 -6.25379,-0.368085 -11.486045,-0.368085 -5.236408,0 -8.666442,0.467468 -8.666442,0.467468 v 3.102957 c 0,0 1.785611,0.03313 1.785611,1.303021 -0.0042,3.128724 -0.04153,9.849958 9.214583,9.849958 7.408208,0 10.946209,-3.390064 11.540029,-7.13717 0.245002,-1.557 0.855432,-3.257554 2.632737,-3.257554 1.777306,0 2.387736,1.696873 2.632738,3.257554 0.59382,3.747106 4.131821,7.13717 11.540029,7.13717 9.251956,0 9.214583,-6.721234 9.214583,-9.849958 0,-1.269893 1.78561,-1.303021 1.78561,-1.303021 v -3.102957 c 0.0042,0 -3.430033,-0.467468 -8.662288,-0.467468 z"
     inkscape:connector-curvature="0"
     style="fill:#757575;stroke-width:0.39096087"
     sodipodi:nodetypes="cccsscscscscssccscscsccscccscccscscssccs" />
  <g
     id="g181"
     style="fill:#858585"
     transform="matrix(0.41525833,0,0,0.3680851,9.0951993,8.3224923)">
    <path
       id="path177"
       d="m 21.67,62.3 c -0.1,1.61 -0.75,3.11 -2.33,3.41 -0.18,0.03 -0.36,0.05 -0.54,0.05 -1.38,0 -2.6,-0.98 -2.87,-2.38 -0.56,-3.01 0.09,-5.83 1.84,-7.94 1.64,-1.98 4.06,-3.11 6.65,-3.11 1.61,0 3.04,1 3.04,2.61 0,1.9 -1.51,2.7 -3.04,3.23 -1.43,0.49 -2.63,2.17 -2.75,4.13 z"
       inkscape:connector-curvature="0" />
    <path
       id="path179"
       d="m 85.92,62.3 c -0.1,1.61 -0.75,3.11 -2.33,3.41 -0.18,0.03 -0.36,0.05 -0.54,0.05 -1.38,0 -2.6,-0.98 -2.87,-2.38 -0.56,-3.01 0.09,-5.83 1.84,-7.94 1.64,-1.98 4.06,-3.11 6.65,-3.11 1.61,0 3.04,1 3.04,2.61 0,1.9 -1.51,2.7 -3.04,3.23 -1.43,0.49 -2.63,2.17 -2.75,4.13 z"
       inkscape:connector-curvature="0" />
  </g>
  <g
     id="g152"
     transform="matrix(0.0621153,0,0,0.0621153,69.685113,31.020521)">
    <path
       id="path138"
       stroke-miterlimit="10"
       d="M 400,148 378.88,123.43 A 191.43,191.43 0 0 0 240,64 C 134,64 48,150 48,256 48,362 134,448 240,448 A 192.09,192.09 0 0 0 421.07,320"
       inkscape:connector-curvature="0"
       style="fill:none;stroke:#000000;stroke-width:32;stroke-linecap:round;stroke-miterlimit:10" />
    <path
       id="path140"
       d="M 464,97.42 V 208 a 16,16 0 0 1 -16,16 H 337.42 c -14.26,0 -21.4,-17.23 -11.32,-27.31 L 436.69,86.1 C 446.77,76 464,83.16 464,97.42 Z"
       inkscape:connector-curvature="0" />
  </g>
</svg>
