<?xml version="1.0" encoding="UTF-8" standalone="no"?>
<svg
   xmlns:dc="http://purl.org/dc/elements/1.1/"
   xmlns:cc="http://creativecommons.org/ns#"
   xmlns:rdf="http://www.w3.org/1999/02/22-rdf-syntax-ns#"
   xmlns:svg="http://www.w3.org/2000/svg"
   xmlns="http://www.w3.org/2000/svg"
   xmlns:sodipodi="http://sodipodi.sourceforge.net/DTD/sodipodi-0.dtd"
   xmlns:inkscape="http://www.inkscape.org/namespaces/inkscape"
   viewBox="0 0 72 72"
   version="1.1"
   id="svg108"
   sodipodi:docname="robot_sunglasses.svg"
   inkscape:version="0.92.5 (2060ec1f9f, 2020-04-08)">
  <metadata
     id="metadata114">
    <rdf:RDF>
      <cc:Work
         rdf:about="">
        <dc:format>image/svg+xml</dc:format>
        <dc:type
           rdf:resource="http://purl.org/dc/dcmitype/StillImage" />
        <dc:title></dc:title>
      </cc:Work>
    </rdf:RDF>
  </metadata>
  <defs
     id="defs112" />
  <sodipodi:namedview
     pagecolor="#ffffff"
     bordercolor="#666666"
     borderopacity="1"
     objecttolerance="10"
     gridtolerance="10"
     guidetolerance="10"
     inkscape:pageopacity="0"
     inkscape:pageshadow="2"
     inkscape:window-width="1528"
     inkscape:window-height="836"
     id="namedview110"
     showgrid="false"
     inkscape:zoom="9.1388889"
     inkscape:cx="36"
     inkscape:cy="36"
     inkscape:window-x="72"
     inkscape:window-y="27"
     inkscape:window-maximized="1"
     inkscape:current-layer="layer1" />
  <g
     fill="none"
     stroke="#000"
     stroke-miterlimit="2"
     stroke-width="2"
     id="g106">
    <path
       d="m34 16.0109v-2.5109c0-1.3807 1.1193-2.5 2.5-2.5 1.3807 0 2.5 1.1193 2.5 2.5v2.5"
       stroke-linecap="round"
       stroke-linejoin="round"
       id="path82" />
    <path
       d="m47.4505 56h-22.901c-4.7022 0-8.5495-3.8473-8.5495-8.5495v-22.901c0-4.7022 3.8473-8.5495 8.5495-8.5495h22.901c4.7022 0 8.5495 3.8473 8.5495 8.5495v22.901c0 4.7022-3.8473 8.5495-8.5495 8.5495z"
       stroke-linecap="round"
       stroke-linejoin="round"
       id="path84" />
    <ellipse
       cx="44.8346"
       cy="29.0022"
       rx="2.8338"
       ry="2.8338"
       stroke-linecap="round"
       stroke-linejoin="round"
       id="ellipse86" />
    <ellipse
       cx="27.3342"
       cy="29.0017"
       rx="2.8338"
       ry="2.8338"
       stroke-linecap="round"
       stroke-linejoin="round"
       id="ellipse88" />
    <path
       d="m44.5 47.5h-17c-2.2 0-4-1.8-4-4 0-2.2 1.8-4 4-4h17c2.2 0 4 1.8 4 4 0 2.2-1.8 4-4 4z"
       id="path90" />
    <g
       stroke-linecap="round"
       stroke-linejoin="round"
       id="g104">
      <path
         d="m13.5 41c-1.3807 0-2.5-1.1193-2.5-2.5v-8c0-1.3807 1.1193-2.5 2.5-2.5 1.3807 0 2.5 1.1193 2.5 2.5v8c0 1.3807-1.1193 2.5-2.5 2.5z"
         id="path92" />
      <path
         d="m58.5 41c1.3807 0 2.5-1.1193 2.5-2.5v-8c0-1.3807-1.1193-2.5-2.5-2.5-1.3807 0-2.5 1.1193-2.5 2.5v8c0 1.3807 1.1193 2.5 2.5 2.5z"
         id="path94" />
      <path
         d="m28 40v7"
         id="path96" />
      <path
         d="m33 40v7"
         id="path98" />
      <path
         d="m38 40v7"
         id="path100" />
      <path
         d="m43 40v7"
         id="path102" />
    </g>
  </g>
  <g
     inkscape:groupmode="layer"
     id="layer1"
     inkscape:label="Layer 1">
    <g
       id="g196"
       transform="matrix(0.41525833,0,0,0.3680851,9.0951993,5.8224923)">
      <path
         id="path173"
         d="m 124.63,53.7 c 0,0 -4.3,0.09 -4.3,3.54 0,8.51 0.09,26.76 -22.19,26.76 -17.84,0 -26.36,-9.21 -27.79,-19.39 -0.59,-4.23 -2.06,-8.85 -6.34,-8.85 -4.28,0 -5.75,4.61 -6.34,8.85 C 56.23,74.79 47.71,84 29.87,84 7.58,84 7.67,65.74 7.67,57.24 7.67,53.79 3.37,53.7 3.37,53.7 v -8.43 c 0,0 8.26,-1.27 20.87,-1.27 12.61,0 17.63,0 27.67,1 5.92,0.6 12.09,0.66 12.09,0.66 0,0 6.17,-0.06 12.09,-0.66 10.03,-1 15.06,-1 27.67,-1 12.61,0 20.87,1.27 20.87,1.27 z"
         inkscape:connector-curvature="0" />
      <path
         id="path175"
         d="m 103.76,47 c 8.19,0 14.55,0.55 17.87,0.92 v 3.35 c -2.41,0.92 -4.3,2.95 -4.3,5.97 v 0.11 c 0,4.08 0,10.24 -2.46,15.2 C 112.05,78.24 106.58,81 98.14,81 84.07,81 74.79,74.72 73.32,64.19 71.99,54.74 67.52,52.76 64.01,52.76 60.49,52.76 56.03,54.74 54.7,64.19 53.21,74.72 43.93,81 29.87,81 21.43,81 15.96,78.23 13.14,72.55 10.68,67.58 10.68,61.42 10.68,57.35 v -0.11 c 0,-3.03 -1.9,-5.05 -4.3,-5.97 V 47.92 C 9.69,47.55 16.05,47 24.24,47 c 12.72,0 17.48,0 27.37,0.99 5.99,0.6 12.1,0.67 12.36,0.67 H 64 64.03 c 0.26,0 6.37,-0.07 12.36,-0.67 C 86.27,47 91.03,47 103.76,47 m 0,-3 C 91.15,44 86.13,44 76.1,45 70.17,45.6 64,45.66 64,45.66 64,45.66 57.83,45.6 51.91,45 41.88,44 36.85,44 24.25,44 11.64,44 3.38,45.27 3.38,45.27 v 8.43 c 0,0 4.3,0.09 4.3,3.54 C 7.67,65.74 7.58,84 29.87,84 c 17.84,0 26.36,-9.21 27.79,-19.39 0.59,-4.23 2.06,-8.85 6.34,-8.85 4.28,0 5.75,4.61 6.34,8.85 1.43,10.18 9.95,19.39 27.79,19.39 22.28,0 22.19,-18.26 22.19,-26.76 0,-3.45 4.3,-3.54 4.3,-3.54 v -8.43 c 0.01,0 -8.26,-1.27 -20.86,-1.27 z"
         inkscape:connector-curvature="0"
         style="fill:#757575" />
      <g
         id="g181"
         style="fill:#858585">
        <path
           id="path177"
           d="m 21.67,62.3 c -0.1,1.61 -0.75,3.11 -2.33,3.41 -0.18,0.03 -0.36,0.05 -0.54,0.05 -1.38,0 -2.6,-0.98 -2.87,-2.38 -0.56,-3.01 0.09,-5.83 1.84,-7.94 1.64,-1.98 4.06,-3.11 6.65,-3.11 1.61,0 3.04,1 3.04,2.61 0,1.9 -1.51,2.7 -3.04,3.23 -1.43,0.49 -2.63,2.17 -2.75,4.13 z"
           inkscape:connector-curvature="0" />
        <path
           id="path179"
           d="m 85.92,62.3 c -0.1,1.61 -0.75,3.11 -2.33,3.41 -0.18,0.03 -0.36,0.05 -0.54,0.05 -1.38,0 -2.6,-0.98 -2.87,-2.38 -0.56,-3.01 0.09,-5.83 1.84,-7.94 1.64,-1.98 4.06,-3.11 6.65,-3.11 1.61,0 3.04,1 3.04,2.61 0,1.9 -1.51,2.7 -3.04,3.23 -1.43,0.49 -2.63,2.17 -2.75,4.13 z"
           inkscape:connector-curvature="0" />
      </g>
    </g>
  </g>
</svg>
